<svg width="341" height="129" viewBox="0 0 341 129" fill="none" xmlns="http://www.w3.org/2000/svg">
<path d="M127.35 26.5H119.8C116.9 26.5 115.5 28.15 115.5 31.45V56.55C115.5 59.85 116.9 61.5 119.8 61.5C122.7 61.5 124.15 59.85 124.15 56.55V50.8H127.35C132.05 50.8 135.65 49.8 138.05 47.7C140.45 45.6 141.65 42.6 141.65 38.65C141.65 34.7 140.45 31.7 138.05 29.6C135.65 27.55 132.05 26.5 127.35 26.5ZM126.8 42.95H124.15V34.35H126.8C128.9 34.35 130.4 34.75 131.3 35.45C132.2 36.15 132.65 37.25 132.65 38.65C132.65 40.1 132.2 41.2 131.3 41.9C130.4 42.6 128.9 42.95 126.8 42.95ZM151.206 42.25V56.55C151.206 58.15 151.556 59.35 152.256 60.2C152.956 61.1 154.006 61.5 155.506 61.5C158.406 61.5 159.906 59.85 159.906 56.55V51.25H171.206V56.55C171.206 59.85 172.656 61.5 175.606 61.5C177.056 61.5 178.156 61.1 178.856 60.2C179.556 59.35 179.906 58.15 179.906 56.55V42.25C179.906 37.05 178.606 33 176.106 30.2C173.606 27.4 170.056 26 165.556 26C161.006 26 157.456 27.4 154.956 30.2C152.456 33 151.206 37.05 151.206 42.25ZM159.906 43.55V42.75C159.906 39.8 160.306 37.65 161.156 36.25C162.006 34.85 163.456 34.15 165.556 34.15C167.606 34.15 169.056 34.85 169.906 36.25C170.756 37.65 171.206 39.8 171.206 42.75V43.55H159.906ZM216.486 33.2C217.236 32.15 217.636 31.1 217.636 30C217.636 28.95 217.186 28 216.336 27.2C215.486 26.4 214.436 26 213.236 26C211.936 26 210.636 26.85 209.436 28.55L202.686 38.05L195.936 28.55C194.686 26.85 193.436 26 192.136 26C190.886 26 189.836 26.4 188.986 27.2C188.136 28 187.736 28.95 187.736 30C187.736 31.1 188.086 32.15 188.886 33.2L198.336 46.45V56.55C198.336 58.15 198.686 59.35 199.386 60.2C200.086 61.1 201.136 61.5 202.636 61.5C205.536 61.5 207.036 59.85 207.036 56.55V46.45L216.486 33.2ZM247.891 26.5H228.241C226.841 26.5 225.691 26.85 224.891 27.5C224.091 28.15 223.691 29.15 223.691 30.45C223.691 31.75 224.091 32.75 224.891 33.4C225.691 34.05 226.841 34.35 228.241 34.35H233.691V56.55C233.691 58.15 234.041 59.35 234.741 60.2C235.441 61.1 236.491 61.5 237.991 61.5C240.891 61.5 242.391 59.85 242.391 56.55V34.35H247.891C249.291 34.35 250.341 34.05 251.141 33.4C251.941 32.75 252.341 31.75 252.341 30.45C252.341 29.15 251.941 28.15 251.141 27.5C250.341 26.85 249.291 26.5 247.891 26.5ZM262.38 60.2C263.08 61.1 264.13 61.5 265.63 61.5C268.53 61.5 270.03 59.85 270.03 56.55V30.95C270.03 27.65 268.53 26 265.63 26C264.13 26 263.08 26.45 262.38 27.3C261.68 28.2 261.33 29.4 261.33 30.95V56.55C261.33 58.15 261.68 59.35 262.38 60.2ZM300.703 53.15H290.753V30.95C290.753 27.65 289.253 26 286.353 26C284.853 26 283.803 26.45 283.103 27.3C282.403 28.2 282.053 29.4 282.053 30.95V56.05C282.053 57.65 282.403 58.85 283.103 59.7C283.803 60.6 284.853 61 286.353 61H300.703C302.103 61 303.153 60.7 303.953 60.05C304.753 59.4 305.153 58.4 305.153 57.05C305.153 55.75 304.753 54.8 303.953 54.15C303.153 53.5 302.103 53.15 300.703 53.15ZM334.302 53.15H322.852V47.35H332.152C333.552 47.35 334.602 47.05 335.402 46.4C336.202 45.75 336.602 44.75 336.602 43.45C336.602 42.15 336.202 41.2 335.402 40.5C334.602 39.85 333.552 39.5 332.152 39.5H322.852V34.35H334.302C335.702 34.35 336.752 34.05 337.552 33.4C338.352 32.75 338.752 31.75 338.752 30.45C338.752 29.15 338.352 28.15 337.552 27.5C336.752 26.85 335.702 26.5 334.302 26.5H318.452C316.952 26.5 315.902 26.95 315.202 27.8C314.502 28.7 314.152 29.9 314.152 31.45V56.05C314.152 57.65 314.502 58.85 315.202 59.7C315.902 60.6 316.952 61 318.452 61H334.302C335.702 61 336.752 60.7 337.552 60.05C338.352 59.4 338.752 58.4 338.752 57.05C338.752 55.75 338.352 54.8 337.552 54.15C336.752 53.5 335.702 53.15 334.302 53.15Z" fill="#6E35A2"/>
<g filter="url(#filter0_dii_2_4995)">
<path d="M81.3333 39.6667C85.0152 35.9848 85.0152 30.0152 81.3333 26.3333L67.3137 12.3137C61.9804 6.98038 59.3137 4.31371 56 4.31371C52.6863 4.31371 50.0196 6.98037 44.6863 12.3137L30.6667 26.3333C26.9848 30.0152 26.9848 35.9848 30.6667 39.6667C31.403 40.403 32.597 40.403 33.3333 39.6667L44.6863 28.3137C50.0196 22.9804 52.6863 20.3137 56 20.3137C59.3137 20.3137 61.9804 22.9804 67.3137 28.3137L78.6667 39.6667C79.403 40.403 80.597 40.403 81.3333 39.6667Z" fill="#FFAF2D"/>
</g>
<g filter="url(#filter1_diiii_2_4995)">
<path d="M40 41C47.0605 33.9395 50.5908 30.4092 54.9234 30.019C55.6397 29.9544 56.3603 29.9544 57.0766 30.019C61.4092 30.4092 64.9395 33.9395 72 41C79.0605 48.0605 82.5908 51.5908 82.981 55.9234C83.0456 56.6397 83.0456 57.3603 82.981 58.0766C82.5908 62.4092 79.0605 65.9395 72 73C64.9395 80.0605 61.4092 83.5908 57.0766 83.981C56.3603 84.0456 55.6397 84.0456 54.9234 83.981C50.5908 83.5908 47.0605 80.0605 40 73C32.9395 65.9395 29.4092 62.4092 29.019 58.0766C28.9544 57.3603 28.9544 56.6397 29.019 55.9234C29.4092 51.5908 32.9395 48.0605 40 41Z" fill="#9B4BE6"/>
</g>
<defs>
<filter id="filter0_dii_2_4995" x="15.9053" y="0.313721" width="80.1895" height="59.9053" filterUnits="userSpaceOnUse" color-interpolation-filters="sRGB">
<feFlood flood-opacity="0" result="BackgroundImageFix"/>
<feColorMatrix in="SourceAlpha" type="matrix" values="0 0 0 0 0 0 0 0 0 0 0 0 0 0 0 0 0 0 127 0" result="hardAlpha"/>
<feOffset dy="8"/>
<feGaussianBlur stdDeviation="6"/>
<feColorMatrix type="matrix" values="0 0 0 0 1 0 0 0 0 0.686275 0 0 0 0 0.176471 0 0 0 0.15 0"/>
<feBlend mode="normal" in2="BackgroundImageFix" result="effect1_dropShadow_2_4995"/>
<feBlend mode="normal" in="SourceGraphic" in2="effect1_dropShadow_2_4995" result="shape"/>
<feColorMatrix in="SourceAlpha" type="matrix" values="0 0 0 0 0 0 0 0 0 0 0 0 0 0 0 0 0 0 127 0" result="hardAlpha"/>
<feOffset dy="-4"/>
<feGaussianBlur stdDeviation="3"/>
<feComposite in2="hardAlpha" operator="arithmetic" k2="-1" k3="1"/>
<feColorMatrix type="matrix" values="0 0 0 0 0 0 0 0 0 0 0 0 0 0 0 0 0 0 0.35 0"/>
<feBlend mode="overlay" in2="shape" result="effect2_innerShadow_2_4995"/>
<feColorMatrix in="SourceAlpha" type="matrix" values="0 0 0 0 0 0 0 0 0 0 0 0 0 0 0 0 0 0 127 0" result="hardAlpha"/>
<feOffset dy="8"/>
<feGaussianBlur stdDeviation="4"/>
<feComposite in2="hardAlpha" operator="arithmetic" k2="-1" k3="1"/>
<feColorMatrix type="matrix" values="0 0 0 0 1 0 0 0 0 1 0 0 0 0 1 0 0 0 0.25 0"/>
<feBlend mode="overlay" in2="effect2_innerShadow_2_4995" result="effect3_innerShadow_2_4995"/>
</filter>
<filter id="filter1_diiii_2_4995" x="0.970581" y="17.9705" width="110.059" height="110.059" filterUnits="userSpaceOnUse" color-interpolation-filters="sRGB">
<feFlood flood-opacity="0" result="BackgroundImageFix"/>
<feColorMatrix in="SourceAlpha" type="matrix" values="0 0 0 0 0 0 0 0 0 0 0 0 0 0 0 0 0 0 127 0" result="hardAlpha"/>
<feOffset dy="16"/>
<feGaussianBlur stdDeviation="14"/>
<feColorMatrix type="matrix" values="0 0 0 0 0.615686 0 0 0 0 0.294118 0 0 0 0 0.905882 0 0 0 0.3 0"/>
<feBlend mode="normal" in2="BackgroundImageFix" result="effect1_dropShadow_2_4995"/>
<feBlend mode="normal" in="SourceGraphic" in2="effect1_dropShadow_2_4995" result="shape"/>
<feColorMatrix in="SourceAlpha" type="matrix" values="0 0 0 0 0 0 0 0 0 0 0 0 0 0 0 0 0 0 127 0" result="hardAlpha"/>
<feOffset dy="-5"/>
<feGaussianBlur stdDeviation="9"/>
<feComposite in2="hardAlpha" operator="arithmetic" k2="-1" k3="1"/>
<feColorMatrix type="matrix" values="0 0 0 0 0 0 0 0 0 0 0 0 0 0 0 0 0 0 0.1 0"/>
<feBlend mode="multiply" in2="shape" result="effect2_innerShadow_2_4995"/>
<feColorMatrix in="SourceAlpha" type="matrix" values="0 0 0 0 0 0 0 0 0 0 0 0 0 0 0 0 0 0 127 0" result="hardAlpha"/>
<feOffset dy="-5"/>
<feGaussianBlur stdDeviation="2"/>
<feComposite in2="hardAlpha" operator="arithmetic" k2="-1" k3="1"/>
<feColorMatrix type="matrix" values="0 0 0 0 1 0 0 0 0 1 0 0 0 0 1 0 0 0 0.4 0"/>
<feBlend mode="soft-light" in2="effect2_innerShadow_2_4995" result="effect3_innerShadow_2_4995"/>
<feColorMatrix in="SourceAlpha" type="matrix" values="0 0 0 0 0 0 0 0 0 0 0 0 0 0 0 0 0 0 127 0" result="hardAlpha"/>
<feOffset dy="16"/>
<feGaussianBlur stdDeviation="14"/>
<feComposite in2="hardAlpha" operator="arithmetic" k2="-1" k3="1"/>
<feColorMatrix type="matrix" values="0 0 0 0 1 0 0 0 0 1 0 0 0 0 1 0 0 0 0.5 0"/>
<feBlend mode="overlay" in2="effect3_innerShadow_2_4995" result="effect4_innerShadow_2_4995"/>
<feColorMatrix in="SourceAlpha" type="matrix" values="0 0 0 0 0 0 0 0 0 0 0 0 0 0 0 0 0 0 127 0" result="hardAlpha"/>
<feOffset dy="-5"/>
<feGaussianBlur stdDeviation="9"/>
<feComposite in2="hardAlpha" operator="arithmetic" k2="-1" k3="1"/>
<feColorMatrix type="matrix" values="0 0 0 0 0 0 0 0 0 0 0 0 0 0 0 0 0 0 0.1 0"/>
<feBlend mode="multiply" in2="effect4_innerShadow_2_4995" result="effect5_innerShadow_2_4995"/>
</filter>
</defs>
</svg>
